<mxfile host="app.diagrams.net" agent="Mozilla/5.0 (Windows NT 10.0; Win64; x64) AppleWebKit/537.36 (KHTML, like Gecko) Chrome/132.0.0.0 Safari/537.36" version="25.0.3">
  <diagram name="Page-1" id="qrBZjnsxmEsC0Jxmci4O">
    <mxGraphModel dx="3087" dy="1647" grid="1" gridSize="10" guides="1" tooltips="1" connect="1" arrows="1" fold="1" page="1" pageScale="1" pageWidth="827" pageHeight="1169" math="0" shadow="0">
      <root>
        <mxCell id="0" />
        <mxCell id="1" parent="0" />
        <mxCell id="NRj1uQNMj02ra95h1yAA-236" value="" style="group" vertex="1" connectable="0" parent="1">
          <mxGeometry x="543.7899999999997" y="641" width="280.6600000000001" height="210" as="geometry" />
        </mxCell>
        <mxCell id="NRj1uQNMj02ra95h1yAA-237" value="" style="rounded=1;whiteSpace=wrap;html=1;strokeWidth=3;dashed=1;fillColor=#FFFFFF;" vertex="1" parent="NRj1uQNMj02ra95h1yAA-236">
          <mxGeometry x="4.079999999999927" width="272.5" height="170" as="geometry" />
        </mxCell>
        <mxCell id="NRj1uQNMj02ra95h1yAA-238" value="Global Attention" style="rounded=1;whiteSpace=wrap;html=1;fillColor=#FF0000;strokeWidth=2;fontSize=18;fontStyle=0;fontColor=#FFFFFF;" vertex="1" parent="NRj1uQNMj02ra95h1yAA-236">
          <mxGeometry x="21.579999999999927" y="90" width="235" height="60" as="geometry" />
        </mxCell>
        <mxCell id="NRj1uQNMj02ra95h1yAA-239" value="Sliding Window Attention" style="rounded=1;whiteSpace=wrap;html=1;fillColor=#0000FF;strokeWidth=2;fontSize=18;fontStyle=0;fontColor=#FFFFFF;" vertex="1" parent="NRj1uQNMj02ra95h1yAA-236">
          <mxGeometry x="21.579999999999927" y="19" width="235" height="60" as="geometry" />
        </mxCell>
        <mxCell id="NRj1uQNMj02ra95h1yAA-240" value="&lt;font style=&quot;font-size: 18px;&quot;&gt;Attention Mechanism (Core Layer)&lt;/font&gt;" style="text;html=1;align=center;verticalAlign=middle;whiteSpace=wrap;rounded=0;fontStyle=0" vertex="1" parent="NRj1uQNMj02ra95h1yAA-236">
          <mxGeometry y="180" width="280.66" height="30" as="geometry" />
        </mxCell>
        <mxCell id="NRj1uQNMj02ra95h1yAA-241" value="" style="group" vertex="1" connectable="0" parent="1">
          <mxGeometry x="90" y="745.99" width="380" height="105.00999999999999" as="geometry" />
        </mxCell>
        <mxCell id="NRj1uQNMj02ra95h1yAA-242" value="Token Embedding + Position Embedding" style="rounded=1;whiteSpace=wrap;html=1;fillColor=#FFFF00;strokeWidth=2;fontSize=18;fontStyle=0;glass=0;shadow=0;points=[[0,0,0,0,0],[0,0.75,0,0,0],[0,1,0,0,0],[0.12,0,0,0,-3],[0.25,0,0,0,0],[0.25,1,0,0,0],[0.38,0,0,0,-3],[0.5,0,0,0,0],[0.5,1,0,0,0],[0.62,0,0,0,0],[0.75,0,0,0,0],[0.75,1,0,0,0],[0.87,0,0,0,0],[1,0,0,0,0],[1,0.5,0,0,0],[1,1,0,0,0]];" vertex="1" parent="NRj1uQNMj02ra95h1yAA-241">
          <mxGeometry width="380" height="60" as="geometry" />
        </mxCell>
        <mxCell id="NRj1uQNMj02ra95h1yAA-243" value="&lt;font style=&quot;font-size: 18px;&quot;&gt;Embedding Layer&lt;/font&gt;" style="text;html=1;align=center;verticalAlign=middle;whiteSpace=wrap;rounded=0;fontStyle=0" vertex="1" parent="NRj1uQNMj02ra95h1yAA-241">
          <mxGeometry x="110.58999999999969" y="75.00999999999999" width="158.82" height="30" as="geometry" />
        </mxCell>
        <mxCell id="NRj1uQNMj02ra95h1yAA-244" value="" style="group" vertex="1" connectable="0" parent="1">
          <mxGeometry x="543.7899999999997" y="170" width="280" height="420" as="geometry" />
        </mxCell>
        <mxCell id="NRj1uQNMj02ra95h1yAA-245" value="" style="rounded=1;whiteSpace=wrap;html=1;strokeWidth=2;perimeterSpacing=0;imageWidth=24;absoluteArcSize=0;noLabel=0;portConstraintRotation=0;arcSize=9;imageHeight=24;" vertex="1" parent="NRj1uQNMj02ra95h1yAA-244">
          <mxGeometry width="280" height="380" as="geometry" />
        </mxCell>
        <mxCell id="NRj1uQNMj02ra95h1yAA-246" style="edgeStyle=orthogonalEdgeStyle;rounded=0;orthogonalLoop=1;jettySize=auto;html=1;exitX=0.5;exitY=0;exitDx=0;exitDy=0;entryX=0.5;entryY=1;entryDx=0;entryDy=0;endArrow=none;endFill=0;strokeWidth=3;" edge="1" parent="NRj1uQNMj02ra95h1yAA-244" source="NRj1uQNMj02ra95h1yAA-247" target="NRj1uQNMj02ra95h1yAA-249">
          <mxGeometry relative="1" as="geometry" />
        </mxCell>
        <mxCell id="NRj1uQNMj02ra95h1yAA-247" value="Multi&lt;span class=&quot;hljs-operator&quot;&gt;-&lt;/span&gt;Head Attention" style="rounded=1;whiteSpace=wrap;html=1;fillColor=#0000FF;strokeWidth=2;fontSize=18;fontStyle=0;glass=0;shadow=0;perimeterSpacing=0;gradientColor=#FF0000;fontColor=#FFFFFF;" vertex="1" parent="NRj1uQNMj02ra95h1yAA-244">
          <mxGeometry x="37.50000000000006" y="270" width="205" height="50" as="geometry" />
        </mxCell>
        <mxCell id="NRj1uQNMj02ra95h1yAA-248" style="edgeStyle=orthogonalEdgeStyle;rounded=0;orthogonalLoop=1;jettySize=auto;html=1;exitX=0.5;exitY=0;exitDx=0;exitDy=0;entryX=0.5;entryY=1;entryDx=0;entryDy=0;strokeWidth=3;" edge="1" parent="NRj1uQNMj02ra95h1yAA-244" source="NRj1uQNMj02ra95h1yAA-249" target="NRj1uQNMj02ra95h1yAA-253">
          <mxGeometry relative="1" as="geometry" />
        </mxCell>
        <mxCell id="NRj1uQNMj02ra95h1yAA-249" value="&lt;span class=&quot;hljs-keyword&quot;&gt;Add&lt;/span&gt; &lt;span class=&quot;hljs-operator&quot;&gt;&amp;amp;&lt;/span&gt; Norm" style="rounded=1;whiteSpace=wrap;html=1;fillColor=#0000FF;strokeWidth=2;fontSize=18;fontStyle=0;glass=0;shadow=0;perimeterSpacing=0;gradientColor=#FF0000;fontColor=#FFFFFF;" vertex="1" parent="NRj1uQNMj02ra95h1yAA-244">
          <mxGeometry x="39.20999999999992" y="200" width="201.58" height="50" as="geometry" />
        </mxCell>
        <mxCell id="NRj1uQNMj02ra95h1yAA-250" style="edgeStyle=orthogonalEdgeStyle;rounded=0;orthogonalLoop=1;jettySize=auto;html=1;strokeWidth=3;" edge="1" parent="NRj1uQNMj02ra95h1yAA-244" source="NRj1uQNMj02ra95h1yAA-251" target="NRj1uQNMj02ra95h1yAA-245">
          <mxGeometry relative="1" as="geometry">
            <Array as="points">
              <mxPoint x="155" y="30" />
              <mxPoint x="155" y="30" />
            </Array>
          </mxGeometry>
        </mxCell>
        <mxCell id="NRj1uQNMj02ra95h1yAA-251" value="&lt;span class=&quot;hljs-keyword&quot;&gt;Add&lt;/span&gt; &lt;span class=&quot;hljs-operator&quot;&gt;&amp;amp;&lt;/span&gt; Norm" style="rounded=1;whiteSpace=wrap;html=1;fillColor=#0000FF;strokeWidth=2;fontSize=18;fontStyle=0;glass=0;shadow=0;perimeterSpacing=0;gradientColor=#FF0000;fontColor=#FFFFFF;" vertex="1" parent="NRj1uQNMj02ra95h1yAA-244">
          <mxGeometry x="38.3599999999999" y="30" width="205" height="50" as="geometry" />
        </mxCell>
        <mxCell id="NRj1uQNMj02ra95h1yAA-252" style="edgeStyle=orthogonalEdgeStyle;rounded=0;orthogonalLoop=1;jettySize=auto;html=1;exitX=0.5;exitY=0;exitDx=0;exitDy=0;entryX=0.5;entryY=1;entryDx=0;entryDy=0;strokeWidth=3;endArrow=none;endFill=0;" edge="1" parent="NRj1uQNMj02ra95h1yAA-244" source="NRj1uQNMj02ra95h1yAA-253" target="NRj1uQNMj02ra95h1yAA-251">
          <mxGeometry relative="1" as="geometry" />
        </mxCell>
        <mxCell id="NRj1uQNMj02ra95h1yAA-253" value="Feedforward" style="rounded=1;whiteSpace=wrap;html=1;fillColor=#0000FF;strokeWidth=2;fontSize=18;fontStyle=0;glass=0;shadow=0;perimeterSpacing=0;gradientColor=#FF0000;fontColor=#FFFFFF;" vertex="1" parent="NRj1uQNMj02ra95h1yAA-244">
          <mxGeometry x="37.5" y="110" width="206.71" height="50" as="geometry" />
        </mxCell>
        <mxCell id="NRj1uQNMj02ra95h1yAA-254" value="" style="endArrow=classic;html=1;rounded=1;strokeWidth=3;entryX=0;entryY=0.5;entryDx=0;entryDy=0;arcSize=50;fillOpacity=100;jumpStyle=none;curved=0;" edge="1" parent="NRj1uQNMj02ra95h1yAA-244" target="NRj1uQNMj02ra95h1yAA-249">
          <mxGeometry width="50" height="50" relative="1" as="geometry">
            <mxPoint x="140" y="350" as="sourcePoint" />
            <mxPoint x="150" y="190" as="targetPoint" />
            <Array as="points">
              <mxPoint x="60" y="350" />
              <mxPoint x="20" y="350" />
              <mxPoint x="20" y="300" />
              <mxPoint x="20" y="235" />
            </Array>
          </mxGeometry>
        </mxCell>
        <mxCell id="NRj1uQNMj02ra95h1yAA-255" value="" style="endArrow=classic;html=1;rounded=1;strokeWidth=3;entryX=0;entryY=0.5;entryDx=0;entryDy=0;arcSize=50;fillOpacity=100;jumpStyle=none;curved=0;" edge="1" parent="NRj1uQNMj02ra95h1yAA-244" target="NRj1uQNMj02ra95h1yAA-251">
          <mxGeometry width="50" height="50" relative="1" as="geometry">
            <mxPoint x="141" y="185" as="sourcePoint" />
            <mxPoint x="49" y="60" as="targetPoint" />
            <Array as="points">
              <mxPoint x="60" y="185" />
              <mxPoint x="20" y="185" />
              <mxPoint x="20" y="125" />
              <mxPoint x="20" y="55" />
            </Array>
          </mxGeometry>
        </mxCell>
        <mxCell id="NRj1uQNMj02ra95h1yAA-256" style="edgeStyle=orthogonalEdgeStyle;rounded=0;orthogonalLoop=1;jettySize=auto;html=1;exitX=0.5;exitY=1;exitDx=0;exitDy=0;" edge="1" parent="NRj1uQNMj02ra95h1yAA-244" source="NRj1uQNMj02ra95h1yAA-245" target="NRj1uQNMj02ra95h1yAA-245">
          <mxGeometry relative="1" as="geometry" />
        </mxCell>
        <mxCell id="NRj1uQNMj02ra95h1yAA-257" value="" style="endArrow=classic;html=1;rounded=0;exitX=0.5;exitY=1;exitDx=0;exitDy=0;entryX=0.5;entryY=1;entryDx=0;entryDy=0;endSize=6;strokeWidth=3;" edge="1" parent="NRj1uQNMj02ra95h1yAA-244" source="NRj1uQNMj02ra95h1yAA-245" target="NRj1uQNMj02ra95h1yAA-247">
          <mxGeometry width="50" height="50" relative="1" as="geometry">
            <mxPoint x="150" y="350" as="sourcePoint" />
            <mxPoint x="200" y="300" as="targetPoint" />
          </mxGeometry>
        </mxCell>
        <mxCell id="NRj1uQNMj02ra95h1yAA-258" value="&lt;font style=&quot;font-size: 18px;&quot;&gt; Attention Blocks&lt;/font&gt;" style="text;html=1;align=center;verticalAlign=middle;whiteSpace=wrap;rounded=0;fontStyle=0" vertex="1" parent="NRj1uQNMj02ra95h1yAA-244">
          <mxGeometry x="60.58999999999992" y="390" width="158.82" height="30" as="geometry" />
        </mxCell>
        <mxCell id="NRj1uQNMj02ra95h1yAA-259" value="" style="group" vertex="1" connectable="0" parent="1">
          <mxGeometry x="209.96999999999977" y="130" width="140.07" height="190" as="geometry" />
        </mxCell>
        <mxCell id="NRj1uQNMj02ra95h1yAA-260" value="" style="shape=image;verticalLabelPosition=bottom;labelBackgroundColor=default;verticalAlign=top;aspect=fixed;imageAspect=0;image=https://www.svgrepo.com/show/145146/application-form.svg;" vertex="1" parent="NRj1uQNMj02ra95h1yAA-259">
          <mxGeometry width="140.07" height="140.07" as="geometry" />
        </mxCell>
        <mxCell id="NRj1uQNMj02ra95h1yAA-261" value="&lt;font style=&quot;font-size: 18px;&quot;&gt;Raw Text&lt;/font&gt;" style="text;html=1;align=center;verticalAlign=middle;whiteSpace=wrap;rounded=0;fontStyle=0" vertex="1" parent="NRj1uQNMj02ra95h1yAA-259">
          <mxGeometry x="17.29" y="165.22" width="105.49" height="24.78" as="geometry" />
        </mxCell>
        <mxCell id="NRj1uQNMj02ra95h1yAA-262" style="edgeStyle=orthogonalEdgeStyle;rounded=0;orthogonalLoop=1;jettySize=auto;html=1;exitX=0.5;exitY=0;exitDx=0;exitDy=0;entryX=0.5;entryY=1;entryDx=0;entryDy=0;strokeWidth=3;" edge="1" parent="1" source="NRj1uQNMj02ra95h1yAA-237" target="NRj1uQNMj02ra95h1yAA-258">
          <mxGeometry relative="1" as="geometry" />
        </mxCell>
        <mxCell id="NRj1uQNMj02ra95h1yAA-263" style="edgeStyle=orthogonalEdgeStyle;rounded=0;orthogonalLoop=1;jettySize=auto;html=1;exitX=0.5;exitY=0;exitDx=0;exitDy=0;entryX=0;entryY=0;entryDx=0;entryDy=0;strokeWidth=3;" edge="1" parent="1" source="NRj1uQNMj02ra95h1yAA-245" target="NRj1uQNMj02ra95h1yAA-293">
          <mxGeometry relative="1" as="geometry">
            <Array as="points">
              <mxPoint x="723.7899999999997" y="130" />
              <mxPoint x="1140.7899999999997" y="130" />
            </Array>
          </mxGeometry>
        </mxCell>
        <mxCell id="NRj1uQNMj02ra95h1yAA-264" value="" style="group" vertex="1" connectable="0" parent="1">
          <mxGeometry x="231.17999999999975" y="380.0050000000001" width="97.64999999999998" height="289.9949999999999" as="geometry" />
        </mxCell>
        <mxCell id="NRj1uQNMj02ra95h1yAA-265" value="&lt;font style=&quot;font-size: 18px;&quot;&gt;Input Layer&lt;/font&gt;" style="text;html=1;align=center;verticalAlign=middle;whiteSpace=wrap;rounded=0;fontStyle=0;rotation=0;" vertex="1" parent="NRj1uQNMj02ra95h1yAA-264">
          <mxGeometry y="259.9949999999999" width="97.65" height="30" as="geometry" />
        </mxCell>
        <mxCell id="NRj1uQNMj02ra95h1yAA-266" value="" style="group" vertex="1" connectable="0" parent="NRj1uQNMj02ra95h1yAA-264">
          <mxGeometry x="6.634999999999877" width="84.38000000000011" height="253.25" as="geometry" />
        </mxCell>
        <mxCell id="NRj1uQNMj02ra95h1yAA-267" value="" style="rounded=1;whiteSpace=wrap;html=1;strokeWidth=2;points=[[0,0,0,0,0],[0,1,0,0,0],[0.12,0,0,0,0],[0.25,0,0,0,0],[0.25,1,0,0,0],[0.38,0,0,0,0],[0.5,0,0,0,0],[0.5,1,0,0,0],[0.63,0,0,0,0],[0.75,0,0,0,0],[0.75,1,0,0,0],[0.87,0,0,0,0],[1,0,0,0,0],[1,0.5,0,0,0],[1,0.75,0,0,0],[1,1,0,0,0]];rotation=90;container=0;" vertex="1" parent="NRj1uQNMj02ra95h1yAA-266">
          <mxGeometry x="-84.43499999999995" y="84.43499999999995" width="253.25" height="84.38" as="geometry" />
        </mxCell>
        <mxCell id="NRj1uQNMj02ra95h1yAA-268" value="" style="shape=image;verticalLabelPosition=bottom;labelBackgroundColor=default;verticalAlign=top;aspect=fixed;imageAspect=0;image=https://static.thenounproject.com/png/3852289-200.png;clipPath=inset(16.5% 25% 15% 19%);rotation=0;container=0;" vertex="1" parent="NRj1uQNMj02ra95h1yAA-266">
          <mxGeometry x="17.50500000000011" y="23.99499999999989" width="45.98" height="56.25" as="geometry" />
        </mxCell>
        <mxCell id="NRj1uQNMj02ra95h1yAA-269" value="" style="shape=image;verticalLabelPosition=bottom;labelBackgroundColor=default;verticalAlign=top;aspect=fixed;imageAspect=0;image=https://static.thenounproject.com/png/3852289-200.png;clipPath=inset(16.5% 25% 15% 19%);rotation=0;container=0;" vertex="1" parent="NRj1uQNMj02ra95h1yAA-266">
          <mxGeometry x="17.50500000000011" y="96.99499999999989" width="45.98" height="56.25" as="geometry" />
        </mxCell>
        <mxCell id="NRj1uQNMj02ra95h1yAA-270" value="" style="shape=image;verticalLabelPosition=bottom;labelBackgroundColor=default;verticalAlign=top;aspect=fixed;imageAspect=0;image=https://static.thenounproject.com/png/3852289-200.png;clipPath=inset(16.5% 25% 15% 19%);rotation=0;container=0;" vertex="1" parent="NRj1uQNMj02ra95h1yAA-266">
          <mxGeometry x="17.50500000000011" y="173.9949999999999" width="45.98" height="56.25" as="geometry" />
        </mxCell>
        <mxCell id="NRj1uQNMj02ra95h1yAA-271" style="edgeStyle=orthogonalEdgeStyle;rounded=0;orthogonalLoop=1;jettySize=auto;html=1;exitX=0.5;exitY=1;exitDx=0;exitDy=0;strokeWidth=3;" edge="1" parent="1" source="NRj1uQNMj02ra95h1yAA-261" target="NRj1uQNMj02ra95h1yAA-267">
          <mxGeometry relative="1" as="geometry" />
        </mxCell>
        <mxCell id="NRj1uQNMj02ra95h1yAA-272" style="edgeStyle=orthogonalEdgeStyle;rounded=0;orthogonalLoop=1;jettySize=auto;html=1;exitX=0.5;exitY=1;exitDx=0;exitDy=0;entryX=0.5;entryY=0;entryDx=0;entryDy=0;entryPerimeter=0;strokeWidth=3;" edge="1" parent="1" source="NRj1uQNMj02ra95h1yAA-265" target="NRj1uQNMj02ra95h1yAA-242">
          <mxGeometry relative="1" as="geometry" />
        </mxCell>
        <mxCell id="NRj1uQNMj02ra95h1yAA-273" style="edgeStyle=orthogonalEdgeStyle;rounded=0;orthogonalLoop=1;jettySize=auto;html=1;exitX=0.5;exitY=1;exitDx=0;exitDy=0;entryX=0.5;entryY=1;entryDx=0;entryDy=0;strokeWidth=3;" edge="1" parent="1" source="NRj1uQNMj02ra95h1yAA-243" target="NRj1uQNMj02ra95h1yAA-240">
          <mxGeometry relative="1" as="geometry">
            <Array as="points">
              <mxPoint x="279.78999999999974" y="890" />
              <mxPoint x="683.7899999999997" y="890" />
            </Array>
          </mxGeometry>
        </mxCell>
        <mxCell id="NRj1uQNMj02ra95h1yAA-274" value="" style="group" vertex="1" connectable="0" parent="1">
          <mxGeometry x="883.7899999999997" y="230" width="280.0000000000001" height="310" as="geometry" />
        </mxCell>
        <mxCell id="NRj1uQNMj02ra95h1yAA-275" value="&lt;p data-pm-slice=&quot;0 0 []&quot;&gt;&lt;font style=&quot;font-size: 18px;&quot;&gt;&amp;nbsp;Layer Normalization (Final Layer)&amp;nbsp;&lt;/font&gt;&lt;/p&gt;" style="text;html=1;align=center;verticalAlign=middle;whiteSpace=wrap;rounded=0;fontStyle=0;container=0;" vertex="1" parent="NRj1uQNMj02ra95h1yAA-274">
          <mxGeometry y="280" width="280" height="30" as="geometry" />
        </mxCell>
        <mxCell id="NRj1uQNMj02ra95h1yAA-276" value="" style="rounded=1;whiteSpace=wrap;html=1;arcSize=11;strokeColor=#0000FF;strokeWidth=5;fillColor=none;container=0;" vertex="1" parent="NRj1uQNMj02ra95h1yAA-274">
          <mxGeometry x="22.92999999999995" width="70" height="260" as="geometry" />
        </mxCell>
        <mxCell id="NRj1uQNMj02ra95h1yAA-277" value="" style="group;fillColor=#FF0000;strokeWidth=3;strokeColor=#ffffff;container=0;" vertex="1" connectable="0" parent="NRj1uQNMj02ra95h1yAA-274">
          <mxGeometry x="36.260000000000105" y="10" width="43.32999999999993" height="240" as="geometry" />
        </mxCell>
        <mxCell id="NRj1uQNMj02ra95h1yAA-278" value="" style="group;fillColor=#FF0000;strokeWidth=3;strokeColor=#FFFFFF;container=0;" vertex="1" connectable="0" parent="NRj1uQNMj02ra95h1yAA-274">
          <mxGeometry x="104.46999999999991" y="10" width="43.32999999999993" height="240" as="geometry" />
        </mxCell>
        <mxCell id="NRj1uQNMj02ra95h1yAA-279" value="" style="group;fillColor=#FF0000;strokeWidth=3;strokeColor=#FFFFFF;container=0;" vertex="1" connectable="0" parent="NRj1uQNMj02ra95h1yAA-274">
          <mxGeometry x="159.36" y="10" width="43.32999999999993" height="240" as="geometry" />
        </mxCell>
        <mxCell id="NRj1uQNMj02ra95h1yAA-280" value="" style="group;fillColor=#FF0000;strokeWidth=3;strokeColor=#FFFFFF;container=0;" vertex="1" connectable="0" parent="NRj1uQNMj02ra95h1yAA-274">
          <mxGeometry x="213.7299999999999" y="10" width="43.32999999999993" height="240" as="geometry" />
        </mxCell>
        <mxCell id="NRj1uQNMj02ra95h1yAA-281" value="" style="rounded=1;whiteSpace=wrap;html=1;fillColor=#FF0000;strokeWidth=3;strokeColor=#ffffff;container=0;" vertex="1" parent="NRj1uQNMj02ra95h1yAA-274">
          <mxGeometry x="36.59000000000003" y="10" width="43" height="40" as="geometry" />
        </mxCell>
        <mxCell id="NRj1uQNMj02ra95h1yAA-282" value="" style="rounded=1;whiteSpace=wrap;html=1;fillColor=#FF0000;strokeWidth=3;strokeColor=#ffffff;container=0;" vertex="1" parent="NRj1uQNMj02ra95h1yAA-274">
          <mxGeometry x="36.59000000000003" y="50" width="43" height="40" as="geometry" />
        </mxCell>
        <mxCell id="NRj1uQNMj02ra95h1yAA-283" value="" style="rounded=1;whiteSpace=wrap;html=1;fillColor=#FF0000;strokeWidth=3;strokeColor=#ffffff;container=0;" vertex="1" parent="NRj1uQNMj02ra95h1yAA-274">
          <mxGeometry x="36.260000000000105" y="90" width="43" height="40" as="geometry" />
        </mxCell>
        <mxCell id="NRj1uQNMj02ra95h1yAA-284" value="" style="rounded=1;whiteSpace=wrap;html=1;fillColor=#FF0000;strokeWidth=3;strokeColor=#ffffff;container=0;" vertex="1" parent="NRj1uQNMj02ra95h1yAA-274">
          <mxGeometry x="36.260000000000105" y="130" width="43" height="40" as="geometry" />
        </mxCell>
        <mxCell id="NRj1uQNMj02ra95h1yAA-285" value="" style="rounded=1;whiteSpace=wrap;html=1;fillColor=#FF0000;strokeWidth=3;strokeColor=#ffffff;container=0;" vertex="1" parent="NRj1uQNMj02ra95h1yAA-274">
          <mxGeometry x="36.260000000000105" y="170" width="43" height="40" as="geometry" />
        </mxCell>
        <mxCell id="NRj1uQNMj02ra95h1yAA-286" value="" style="rounded=1;whiteSpace=wrap;html=1;fillColor=#FF0000;strokeWidth=3;strokeColor=#ffffff;container=0;" vertex="1" parent="NRj1uQNMj02ra95h1yAA-274">
          <mxGeometry x="36.260000000000105" y="210" width="43" height="40" as="geometry" />
        </mxCell>
        <mxCell id="NRj1uQNMj02ra95h1yAA-287" value="" style="rounded=1;whiteSpace=wrap;html=1;fillColor=#FF0000;strokeWidth=3;strokeColor=#FFFFFF;container=0;" vertex="1" parent="NRj1uQNMj02ra95h1yAA-274">
          <mxGeometry x="104.79999999999984" y="10" width="43" height="40" as="geometry" />
        </mxCell>
        <mxCell id="NRj1uQNMj02ra95h1yAA-288" value="" style="rounded=1;whiteSpace=wrap;html=1;fillColor=#FF0000;strokeWidth=3;strokeColor=#FFFFFF;container=0;" vertex="1" parent="NRj1uQNMj02ra95h1yAA-274">
          <mxGeometry x="104.79999999999984" y="50" width="43" height="40" as="geometry" />
        </mxCell>
        <mxCell id="NRj1uQNMj02ra95h1yAA-289" value="" style="rounded=1;whiteSpace=wrap;html=1;fillColor=#FF0000;strokeWidth=3;strokeColor=#FFFFFF;container=0;" vertex="1" parent="NRj1uQNMj02ra95h1yAA-274">
          <mxGeometry x="104.46999999999991" y="90" width="43" height="40" as="geometry" />
        </mxCell>
        <mxCell id="NRj1uQNMj02ra95h1yAA-290" value="" style="rounded=1;whiteSpace=wrap;html=1;fillColor=#FF0000;strokeWidth=3;strokeColor=#FFFFFF;container=0;" vertex="1" parent="NRj1uQNMj02ra95h1yAA-274">
          <mxGeometry x="104.46999999999991" y="130" width="43" height="40" as="geometry" />
        </mxCell>
        <mxCell id="NRj1uQNMj02ra95h1yAA-291" value="" style="rounded=1;whiteSpace=wrap;html=1;fillColor=#FF0000;strokeWidth=3;strokeColor=#FFFFFF;container=0;" vertex="1" parent="NRj1uQNMj02ra95h1yAA-274">
          <mxGeometry x="104.46999999999991" y="170" width="43" height="40" as="geometry" />
        </mxCell>
        <mxCell id="NRj1uQNMj02ra95h1yAA-292" value="" style="rounded=1;whiteSpace=wrap;html=1;fillColor=#FF0000;strokeWidth=3;strokeColor=#FFFFFF;container=0;" vertex="1" parent="NRj1uQNMj02ra95h1yAA-274">
          <mxGeometry x="104.46999999999991" y="210" width="43" height="40" as="geometry" />
        </mxCell>
        <mxCell id="NRj1uQNMj02ra95h1yAA-293" value="" style="rounded=1;whiteSpace=wrap;html=1;fillColor=#FF0000;strokeWidth=3;strokeColor=#FFFFFF;container=0;" vertex="1" parent="NRj1uQNMj02ra95h1yAA-274">
          <mxGeometry x="159.68999999999994" y="10" width="43" height="40" as="geometry" />
        </mxCell>
        <mxCell id="NRj1uQNMj02ra95h1yAA-294" value="" style="rounded=1;whiteSpace=wrap;html=1;fillColor=#FF0000;strokeWidth=3;strokeColor=#FFFFFF;container=0;" vertex="1" parent="NRj1uQNMj02ra95h1yAA-274">
          <mxGeometry x="159.68999999999994" y="50" width="43" height="40" as="geometry" />
        </mxCell>
        <mxCell id="NRj1uQNMj02ra95h1yAA-295" value="" style="rounded=1;whiteSpace=wrap;html=1;fillColor=#FF0000;strokeWidth=3;strokeColor=#FFFFFF;container=0;" vertex="1" parent="NRj1uQNMj02ra95h1yAA-274">
          <mxGeometry x="159.36" y="90" width="43" height="40" as="geometry" />
        </mxCell>
        <mxCell id="NRj1uQNMj02ra95h1yAA-296" value="" style="rounded=1;whiteSpace=wrap;html=1;fillColor=#FF0000;strokeWidth=3;strokeColor=#FFFFFF;container=0;" vertex="1" parent="NRj1uQNMj02ra95h1yAA-274">
          <mxGeometry x="159.36" y="130" width="43" height="40" as="geometry" />
        </mxCell>
        <mxCell id="NRj1uQNMj02ra95h1yAA-297" value="" style="rounded=1;whiteSpace=wrap;html=1;fillColor=#FF0000;strokeWidth=3;strokeColor=#FFFFFF;container=0;" vertex="1" parent="NRj1uQNMj02ra95h1yAA-274">
          <mxGeometry x="159.36" y="170" width="43" height="40" as="geometry" />
        </mxCell>
        <mxCell id="NRj1uQNMj02ra95h1yAA-298" value="" style="rounded=1;whiteSpace=wrap;html=1;fillColor=#FF0000;strokeWidth=3;strokeColor=#FFFFFF;container=0;" vertex="1" parent="NRj1uQNMj02ra95h1yAA-274">
          <mxGeometry x="159.36" y="210" width="43" height="40" as="geometry" />
        </mxCell>
        <mxCell id="NRj1uQNMj02ra95h1yAA-299" value="" style="rounded=1;whiteSpace=wrap;html=1;fillColor=#FF0000;strokeWidth=3;strokeColor=#FFFFFF;container=0;" vertex="1" parent="NRj1uQNMj02ra95h1yAA-274">
          <mxGeometry x="214.05999999999983" y="10" width="43" height="40" as="geometry" />
        </mxCell>
        <mxCell id="NRj1uQNMj02ra95h1yAA-300" value="" style="rounded=1;whiteSpace=wrap;html=1;fillColor=#FF0000;strokeWidth=3;strokeColor=#FFFFFF;container=0;" vertex="1" parent="NRj1uQNMj02ra95h1yAA-274">
          <mxGeometry x="214.05999999999983" y="50" width="43" height="40" as="geometry" />
        </mxCell>
        <mxCell id="NRj1uQNMj02ra95h1yAA-301" value="" style="rounded=1;whiteSpace=wrap;html=1;fillColor=#FF0000;strokeWidth=3;strokeColor=#FFFFFF;container=0;" vertex="1" parent="NRj1uQNMj02ra95h1yAA-274">
          <mxGeometry x="213.7299999999999" y="90" width="43" height="40" as="geometry" />
        </mxCell>
        <mxCell id="NRj1uQNMj02ra95h1yAA-302" value="" style="rounded=1;whiteSpace=wrap;html=1;fillColor=#FF0000;strokeWidth=3;strokeColor=#FFFFFF;container=0;" vertex="1" parent="NRj1uQNMj02ra95h1yAA-274">
          <mxGeometry x="213.7299999999999" y="130" width="43" height="40" as="geometry" />
        </mxCell>
        <mxCell id="NRj1uQNMj02ra95h1yAA-303" value="" style="rounded=1;whiteSpace=wrap;html=1;fillColor=#FF0000;strokeWidth=3;strokeColor=#FFFFFF;container=0;" vertex="1" parent="NRj1uQNMj02ra95h1yAA-274">
          <mxGeometry x="213.7299999999999" y="170" width="43" height="40" as="geometry" />
        </mxCell>
        <mxCell id="NRj1uQNMj02ra95h1yAA-304" value="" style="rounded=1;whiteSpace=wrap;html=1;fillColor=#FF0000;strokeWidth=3;strokeColor=#FFFFFF;container=0;" vertex="1" parent="NRj1uQNMj02ra95h1yAA-274">
          <mxGeometry x="213.7299999999999" y="210" width="43" height="40" as="geometry" />
        </mxCell>
        <mxCell id="NRj1uQNMj02ra95h1yAA-305" value="" style="group" vertex="1" connectable="0" parent="1">
          <mxGeometry x="923.7899999999997" y="600" width="200" height="200" as="geometry" />
        </mxCell>
        <mxCell id="NRj1uQNMj02ra95h1yAA-306" value="" style="rounded=1;whiteSpace=wrap;html=1;strokeWidth=2;arcSize=7;container=0;" vertex="1" parent="NRj1uQNMj02ra95h1yAA-305">
          <mxGeometry width="200" height="200" as="geometry" />
        </mxCell>
        <mxCell id="NRj1uQNMj02ra95h1yAA-307" value="&lt;font style=&quot;font-size: 18px;&quot;&gt;Triggered&lt;/font&gt;" style="rounded=1;whiteSpace=wrap;html=1;strokeWidth=0;fillColor=#FF0000;fontColor=#FFFFFF;container=0;" vertex="1" parent="NRj1uQNMj02ra95h1yAA-305">
          <mxGeometry x="24.40000000000009" y="70" width="145.6" height="40" as="geometry" />
        </mxCell>
        <mxCell id="NRj1uQNMj02ra95h1yAA-308" value="&lt;span style=&quot;font-size: 18px;&quot;&gt;Not Triggered&lt;/span&gt;" style="rounded=1;whiteSpace=wrap;html=1;strokeWidth=0;fillColor=#00ff04;container=0;" vertex="1" parent="NRj1uQNMj02ra95h1yAA-305">
          <mxGeometry x="24.40000000000009" y="130" width="145.6" height="40" as="geometry" />
        </mxCell>
        <mxCell id="NRj1uQNMj02ra95h1yAA-309" value="&lt;font style=&quot;font-size: 21px;&quot;&gt;Output Class&lt;/font&gt;" style="text;html=1;align=center;verticalAlign=middle;whiteSpace=wrap;rounded=0;fontStyle=1;fontSize=21;container=0;" vertex="1" parent="NRj1uQNMj02ra95h1yAA-305">
          <mxGeometry x="12.420000000000073" y="21" width="175.16" height="30" as="geometry" />
        </mxCell>
        <mxCell id="NRj1uQNMj02ra95h1yAA-310" style="edgeStyle=orthogonalEdgeStyle;rounded=0;orthogonalLoop=1;jettySize=auto;html=1;exitX=0.5;exitY=1;exitDx=0;exitDy=0;entryX=0.5;entryY=0;entryDx=0;entryDy=0;strokeWidth=3;" edge="1" parent="1" source="NRj1uQNMj02ra95h1yAA-275" target="NRj1uQNMj02ra95h1yAA-306">
          <mxGeometry relative="1" as="geometry" />
        </mxCell>
      </root>
    </mxGraphModel>
  </diagram>
</mxfile>
